<svg xmlns="http://www.w3.org/2000/svg" xmlns:xlink="http://www.w3.org/1999/xlink" width="1080" zoomAndPan="magnify" viewBox="0 0 810 1439.999935" height="1920" preserveAspectRatio="xMidYMid meet" version="1.0"><path fill="#ffffff" d="M 405 882 C 361.726562 882 321.046875 865.148438 290.449219 834.550781 C 259.851562 803.953125 243 763.269531 243 720 C 243 676.726562 259.851562 636.046875 290.449219 605.449219 C 321.046875 574.851562 361.726562 558 405 558 C 448.269531 558 488.953125 574.851562 519.550781 605.449219 C 550.148438 636.046875 567 676.726562 567 720 C 567 744.097656 560.242188 766.449219 559.929688 767.464844 C 557.234375 776.292969 553.753906 784.941406 549.582031 793.195312 L 565.457031 873.460938 C 565.769531 875.042969 565.28125 876.679688 564.152344 877.832031 C 563.023438 878.984375 561.398438 879.503906 559.8125 879.230469 L 477.613281 864.820312 C 468.917969 869.195312 459.789062 872.796875 450.460938 875.523438 C 449.558594 875.789062 428.085938 882 405 882 Z M 405 567.789062 C 364.34375 567.789062 326.117188 583.621094 297.371094 612.371094 C 268.621094 641.117188 252.789062 679.34375 252.789062 720 C 252.789062 760.65625 268.621094 798.878906 297.371094 827.628906 C 326.117188 856.378906 364.34375 872.210938 405 872.210938 C 426.699219 872.210938 447.503906 866.191406 447.710938 866.128906 C 456.972656 863.421875 466.019531 859.800781 474.601562 855.367188 C 475.550781 854.878906 476.636719 854.710938 477.691406 854.898438 L 554.46875 868.355469 L 539.648438 793.425781 C 539.433594 792.335938 539.59375 791.207031 540.105469 790.21875 C 544.359375 782.035156 547.878906 773.417969 550.570312 764.605469 C 550.570312 764.605469 550.570312 764.601562 550.570312 764.601562 C 550.664062 764.296875 557.210938 742.582031 557.210938 720 C 557.210938 679.34375 541.378906 641.117188 512.628906 612.371094 C 483.878906 583.621094 445.65625 567.789062 405 567.789062 Z M 405 567.789062 " fill-opacity="1" fill-rule="nonzero"/></svg>